# xmcd CD database file
#
# Track frame offsets:
#	150
#	24764
#	49249
#	70976
#	96086
#	116428
#	146256
#	161282
#	178560
#	190628
#	205924
#
# Disc length: 2972 seconds
#
# Revision: 0
# Processed by: cddbd v1.5.2PL0 Copyright (c) Steve Scherf et al.
# Submitted via: CDex 1.51
#
DISCID=870b9a0b
DTITLE=Ray Kennedy Trio - Mozart Jazz
DYEAR=1900
DGENRE=Jazz
TTITLE0=Turkish March(K331-3)
TTITLE1=Elvira Madigan(K467-2)
TTITLE2=Romance(K525-2)
TTITLE3=Andante(K364-2)
TTITLE4=Caro Mozart(K550-1)
TTITLE5=Menuet(K334-3)
TTITLE6=Rondo(K285-3)
TTITLE7=Adagio(K15)
TTITLE8=Allegro(K525-1)
TTITLE9=Adagio(K622-2)
TTITLE10=Turkish(K219-3)
EXTD=
EXTT0=
EXTT1=
EXTT2=
EXTT3=
EXTT4=
EXTT5=
EXTT6=
EXTT7=
EXTT8=
EXTT9=
EXTT10=
PLAYORDER=
